<mxfile host="app.diagrams.net" modified="2022-07-04T07:30:53.307Z" agent="5.0 (Windows NT 10.0; Win64; x64) AppleWebKit/537.36 (KHTML, like Gecko) Chrome/91.0.4472.124 Safari/537.36" etag="lbo2hEq2thl6qsA65HeF" version="15.5.9" type="github">
  <diagram id="7XLGdWjsNQbWwU6KGcKe" name="Page-1">
    <mxGraphModel dx="1422" dy="1452" grid="1" gridSize="10" guides="1" tooltips="1" connect="1" arrows="1" fold="1" page="1" pageScale="1" pageWidth="980" pageHeight="690" math="0" shadow="0">
      <root>
        <mxCell id="0" />
        <mxCell id="1" parent="0" />
        <mxCell id="sxrZPHAnl3pcY4yWejcJ-3" value="" style="edgeStyle=orthogonalEdgeStyle;rounded=0;orthogonalLoop=1;jettySize=auto;html=1;" edge="1" parent="1" source="sxrZPHAnl3pcY4yWejcJ-1" target="sxrZPHAnl3pcY4yWejcJ-2">
          <mxGeometry relative="1" as="geometry" />
        </mxCell>
        <mxCell id="sxrZPHAnl3pcY4yWejcJ-1" value="&lt;div&gt;&lt;br&gt;&lt;/div&gt;&lt;div&gt;作废库存单&lt;/div&gt;&lt;div&gt;invalidBill&lt;/div&gt;" style="whiteSpace=wrap;html=1;rounded=1;arcSize=50;align=center;verticalAlign=middle;strokeWidth=1;autosize=1;spacing=4;treeFolding=1;treeMoving=1;newEdgeStyle={&quot;edgeStyle&quot;:&quot;entityRelationEdgeStyle&quot;,&quot;startArrow&quot;:&quot;none&quot;,&quot;endArrow&quot;:&quot;none&quot;,&quot;segment&quot;:10,&quot;curved&quot;:1};direction=west;" vertex="1" parent="1">
          <mxGeometry x="190" y="-645" width="100" height="60" as="geometry" />
        </mxCell>
        <mxCell id="sxrZPHAnl3pcY4yWejcJ-5" value="" style="edgeStyle=orthogonalEdgeStyle;rounded=0;orthogonalLoop=1;jettySize=auto;html=1;" edge="1" parent="1" source="sxrZPHAnl3pcY4yWejcJ-2" target="sxrZPHAnl3pcY4yWejcJ-4">
          <mxGeometry relative="1" as="geometry" />
        </mxCell>
        <mxCell id="sxrZPHAnl3pcY4yWejcJ-2" value="execDisable" style="whiteSpace=wrap;html=1;rounded=1;arcSize=50;align=center;verticalAlign=middle;strokeWidth=1;autosize=1;spacing=4;treeFolding=1;treeMoving=1;newEdgeStyle={&quot;edgeStyle&quot;:&quot;entityRelationEdgeStyle&quot;,&quot;startArrow&quot;:&quot;none&quot;,&quot;endArrow&quot;:&quot;none&quot;,&quot;segment&quot;:10,&quot;curved&quot;:1};direction=west;" vertex="1" parent="1">
          <mxGeometry x="185" y="-490" width="110" height="30" as="geometry" />
        </mxCell>
        <mxCell id="sxrZPHAnl3pcY4yWejcJ-7" value="" style="edgeStyle=orthogonalEdgeStyle;rounded=0;orthogonalLoop=1;jettySize=auto;html=1;" edge="1" parent="1" source="sxrZPHAnl3pcY4yWejcJ-4" target="sxrZPHAnl3pcY4yWejcJ-6">
          <mxGeometry relative="1" as="geometry" />
        </mxCell>
        <mxCell id="sxrZPHAnl3pcY4yWejcJ-4" value="operateStock&lt;br&gt;UNFREEZE_STOCK&lt;br&gt;解冻库存&lt;br&gt;" style="whiteSpace=wrap;html=1;rounded=1;arcSize=50;align=center;verticalAlign=middle;strokeWidth=1;autosize=1;spacing=4;treeFolding=1;treeMoving=1;newEdgeStyle={&quot;edgeStyle&quot;:&quot;entityRelationEdgeStyle&quot;,&quot;startArrow&quot;:&quot;none&quot;,&quot;endArrow&quot;:&quot;none&quot;,&quot;segment&quot;:10,&quot;curved&quot;:1};direction=west;" vertex="1" parent="1">
          <mxGeometry x="165" y="-395" width="150" height="60" as="geometry" />
        </mxCell>
        <mxCell id="sxrZPHAnl3pcY4yWejcJ-9" value="" style="edgeStyle=orthogonalEdgeStyle;rounded=0;orthogonalLoop=1;jettySize=auto;html=1;" edge="1" parent="1" source="sxrZPHAnl3pcY4yWejcJ-6" target="sxrZPHAnl3pcY4yWejcJ-8">
          <mxGeometry relative="1" as="geometry" />
        </mxCell>
        <mxCell id="sxrZPHAnl3pcY4yWejcJ-11" value="" style="edgeStyle=orthogonalEdgeStyle;rounded=0;orthogonalLoop=1;jettySize=auto;html=1;" edge="1" parent="1" source="sxrZPHAnl3pcY4yWejcJ-6" target="sxrZPHAnl3pcY4yWejcJ-10">
          <mxGeometry relative="1" as="geometry" />
        </mxCell>
        <mxCell id="sxrZPHAnl3pcY4yWejcJ-6" value="unFreezePOStock&#xa;解冻PO库存&#xa;updatePo.setFrozenStock(stockPo.getFrozenStock() - frozenStock);&#xa;updatePo.setActualStock(stockPo.getActualStock() + frozenStock);" style="whiteSpace=wrap;html=1;rounded=1;arcSize=50;align=center;verticalAlign=middle;strokeWidth=1;autosize=1;spacing=4;treeFolding=1;treeMoving=1;newEdgeStyle={&quot;edgeStyle&quot;:&quot;entityRelationEdgeStyle&quot;,&quot;startArrow&quot;:&quot;none&quot;,&quot;endArrow&quot;:&quot;none&quot;,&quot;segment&quot;:10,&quot;curved&quot;:1};direction=west;" vertex="1" parent="1">
          <mxGeometry x="40" y="-260" width="400" height="70" as="geometry" />
        </mxCell>
        <mxCell id="sxrZPHAnl3pcY4yWejcJ-8" value="&lt;div&gt;StorageStockBillPo&lt;/div&gt;&lt;div&gt;库存操作记录&lt;/div&gt;" style="whiteSpace=wrap;html=1;rounded=1;arcSize=50;align=center;verticalAlign=middle;strokeWidth=1;autosize=1;spacing=4;treeFolding=1;treeMoving=1;newEdgeStyle={&quot;edgeStyle&quot;:&quot;entityRelationEdgeStyle&quot;,&quot;startArrow&quot;:&quot;none&quot;,&quot;endArrow&quot;:&quot;none&quot;,&quot;segment&quot;:10,&quot;curved&quot;:1};direction=west;" vertex="1" parent="1">
          <mxGeometry x="650" y="-245" width="140" height="40" as="geometry" />
        </mxCell>
        <mxCell id="sxrZPHAnl3pcY4yWejcJ-13" value="" style="edgeStyle=orthogonalEdgeStyle;rounded=0;orthogonalLoop=1;jettySize=auto;html=1;" edge="1" parent="1" source="sxrZPHAnl3pcY4yWejcJ-10" target="sxrZPHAnl3pcY4yWejcJ-12">
          <mxGeometry relative="1" as="geometry" />
        </mxCell>
        <mxCell id="sxrZPHAnl3pcY4yWejcJ-10" value="&lt;div&gt;&lt;br&gt;&lt;/div&gt;&lt;div&gt;StorageStockSumPo&lt;/div&gt;&lt;div&gt;解冻聚合库存&lt;/div&gt;&lt;div&gt;&lt;div&gt;updatePo.setFrozenStock(storageStockSumPo.getFrozenStock() - frozenAmount);&lt;/div&gt;&lt;div&gt;updatePo.setActualStock(storageStockSumPo.getActualStock() + returnStock);&lt;/div&gt;&lt;/div&gt;" style="whiteSpace=wrap;html=1;rounded=1;arcSize=50;align=center;verticalAlign=middle;strokeWidth=1;autosize=1;spacing=4;treeFolding=1;treeMoving=1;newEdgeStyle={&quot;edgeStyle&quot;:&quot;entityRelationEdgeStyle&quot;,&quot;startArrow&quot;:&quot;none&quot;,&quot;endArrow&quot;:&quot;none&quot;,&quot;segment&quot;:10,&quot;curved&quot;:1};direction=west;" vertex="1" parent="1">
          <mxGeometry y="-115" width="480" height="80" as="geometry" />
        </mxCell>
        <mxCell id="sxrZPHAnl3pcY4yWejcJ-15" value="" style="edgeStyle=orthogonalEdgeStyle;rounded=0;orthogonalLoop=1;jettySize=auto;html=1;" edge="1" parent="1" source="sxrZPHAnl3pcY4yWejcJ-12" target="sxrZPHAnl3pcY4yWejcJ-14">
          <mxGeometry relative="1" as="geometry" />
        </mxCell>
        <mxCell id="sxrZPHAnl3pcY4yWejcJ-12" value="&lt;div&gt;更新出库单状态为作废&lt;/div&gt;&lt;div&gt;ScmStorageBillPo&lt;/div&gt;" style="whiteSpace=wrap;html=1;rounded=1;arcSize=50;align=center;verticalAlign=middle;strokeWidth=1;autosize=1;spacing=4;treeFolding=1;treeMoving=1;newEdgeStyle={&quot;edgeStyle&quot;:&quot;entityRelationEdgeStyle&quot;,&quot;startArrow&quot;:&quot;none&quot;,&quot;endArrow&quot;:&quot;none&quot;,&quot;segment&quot;:10,&quot;curved&quot;:1};direction=west;" vertex="1" parent="1">
          <mxGeometry x="160" y="65" width="160" height="40" as="geometry" />
        </mxCell>
        <mxCell id="sxrZPHAnl3pcY4yWejcJ-17" value="" style="edgeStyle=orthogonalEdgeStyle;rounded=0;orthogonalLoop=1;jettySize=auto;html=1;" edge="1" parent="1" source="sxrZPHAnl3pcY4yWejcJ-14" target="sxrZPHAnl3pcY4yWejcJ-16">
          <mxGeometry relative="1" as="geometry" />
        </mxCell>
        <mxCell id="sxrZPHAnl3pcY4yWejcJ-14" value="发送出入库单状态变更消息" style="whiteSpace=wrap;html=1;rounded=1;arcSize=50;align=center;verticalAlign=middle;strokeWidth=1;autosize=1;spacing=4;treeFolding=1;treeMoving=1;newEdgeStyle={&quot;edgeStyle&quot;:&quot;entityRelationEdgeStyle&quot;,&quot;startArrow&quot;:&quot;none&quot;,&quot;endArrow&quot;:&quot;none&quot;,&quot;segment&quot;:10,&quot;curved&quot;:1};direction=west;" vertex="1" parent="1">
          <mxGeometry x="150" y="190" width="180" height="30" as="geometry" />
        </mxCell>
        <mxCell id="sxrZPHAnl3pcY4yWejcJ-16" value="storage_bill_status_change" style="whiteSpace=wrap;html=1;rounded=1;arcSize=50;align=center;verticalAlign=middle;strokeWidth=1;autosize=1;spacing=4;treeFolding=1;treeMoving=1;newEdgeStyle={&quot;edgeStyle&quot;:&quot;entityRelationEdgeStyle&quot;,&quot;startArrow&quot;:&quot;none&quot;,&quot;endArrow&quot;:&quot;none&quot;,&quot;segment&quot;:10,&quot;curved&quot;:1};direction=west;" vertex="1" parent="1">
          <mxGeometry x="405" y="190" width="190" height="30" as="geometry" />
        </mxCell>
      </root>
    </mxGraphModel>
  </diagram>
</mxfile>
